# xmcd CD database file
#
# Track frame offsets:
#	150
#	4629
#	23779
#	43135
#	56837
#	71721
#	93951
#	96841
#	112451
#	125346
#	137454
#	155030
#	179330
#	209969
#	220506
#	235716
#	262494
#
# Disc length: 3716 seconds
#
# Revision: 0
# Processed by: cddbd v1.5.1PL0 Copyright (c) Steve Scherf et al.
# Submitted via: CDex 1.51
#
DISCID=030e8211
DTITLE=Blaxploitation Ed - VV Summer Swap 2005
DYEAR=2005
DGENRE=Jazz
TTITLE0=Ed Thigpen - Intro To Pt. 1
TTITLE1=War - Magic Mountains
TTITLE2=Free Creek - Cissy Strut
TTITLE3=Little Feat - Two Trains
TTITLE4=Infernal Blues Machine - Adios Amigo
TTITLE5=Kjell Ohman - Stone Free
TTITLE6=Ed Thigpen - Intro To Pt. 2
TTITLE7=Kom - Ovi Part 1
TTITLE8=Sonlight - Walk In The Spirit
TTITLE9=Edwards Hand - This May Sound Strange
TTITLE10=Hot Line - Big Mary And Small Susan
TTITLE11=Mighty Baby - Egyptian Tomb
TTITLE12=Splash - Var Drom
TTITLE13=Lightmen - Survival Song
TTITLE14=Judy Freeman and Blackrock - All We Need Is A Miracle
TTITLE15=Arthur Adams - The Floor Is Yours
TTITLE16=Archie Bell and The Drells - Glad You Could Make It
EXTD=YEAR: 2005
EXTT0=
EXTT1=
EXTT2=
EXTT3=
EXTT4=
EXTT5=
EXTT6=
EXTT7=
EXTT8=
EXTT9=
EXTT10=
EXTT11=
EXTT12=
EXTT13=
EXTT14=
EXTT15=
EXTT16=
PLAYORDER=
